<svg width="20" height="20" viewBox="0 0 20 20" fill="none" xmlns="http://www.w3.org/2000/svg">
<path fill-rule="evenodd" clip-rule="evenodd" d="M10 3.33331H16.6667V4.99998H10V3.33331ZM10 9.16664H16.6667V10.8333H10V9.16664ZM3.33336 13.3333H7.50003V17.5H3.33336V13.3333ZM4.58336 14.5833V16.25H6.25003V14.5833H4.58336ZM10 15H16.6667V16.6666H10V15ZM7.41471 1.80176L8.40549 2.5639L5.43547 6.42493L2.75513 4.07963L3.57826 3.13891L5.25669 4.60664L7.41471 1.80176ZM7.41471 7.63509L8.40549 8.39723L5.43547 12.2583L2.75513 9.91296L3.57826 8.97224L5.25669 10.44L7.41471 7.63509Z" fill="white"/>
</svg>
