<svg width="14" height="14" viewBox="0 0 14 14" fill="none" xmlns="http://www.w3.org/2000/svg">
<g clip-path="url(#clip0_183_2274)">
<path d="M13.4521 5.18334C13.3559 5.14743 13.2491 5.19616 13.2132 5.29186C13.1607 5.4303 13.1021 5.54394 13.0406 5.63494C12.9876 5.714 12.9321 5.77593 12.877 5.82422C12.877 5.81952 12.8774 5.81396 12.8774 5.80841C12.8774 5.67041 12.8586 5.54736 12.8232 5.43884C12.7706 5.27647 12.6775 5.14916 12.5613 5.06543C12.4455 4.98083 12.31 4.94238 12.181 4.94238C12.0392 4.94238 11.9012 4.98682 11.7875 5.0697C11.7311 5.11243 11.6807 5.1637 11.6406 5.22607C11.6008 5.28675 11.5718 5.35768 11.5577 5.43457C11.5513 5.4696 11.5483 5.5055 11.5483 5.54096C11.5483 5.65332 11.5795 5.761 11.6307 5.85755C11.7068 6.00195 11.826 6.12371 11.9721 6.21217C12.0571 6.26429 12.1524 6.30446 12.2533 6.32923C12.2473 6.33393 12.2417 6.33948 12.2353 6.34462C12.0824 6.47109 11.8709 6.57705 11.6474 6.65011C11.1279 5.93234 10.3644 5.3987 9.47958 5.09023V6.16902H5.66975V5.14407C5.36599 5.25517 5.06477 5.38847 4.77039 5.55253C4.48284 5.71274 4.22521 5.87852 3.99025 6.04516C3.3562 5.28166 1.76001 5.15435 1.96508 5.74823C2.15179 6.2857 2.42566 6.87616 2.55341 7.22564C2.07361 7.6294 1.63012 7.94298 1.04694 8.05109C0.514581 8.15021 0.356507 8.29207 0.456475 8.8116L0.676511 10.5531C0.676511 10.5531 1.2973 10.912 1.51733 11.0333C2.00268 11.3016 2.95758 11.887 4.3692 12.321L4.90457 14H6.24356V12.7353C6.77805 12.8088 7.35355 12.8528 7.97007 12.8528C8.29051 12.8528 8.59171 12.831 8.87499 12.7909V14H10.2135L10.8361 12.0492C12.316 11.0033 12.6813 9.13191 12.1584 7.62759C12.0777 7.39646 11.9755 7.17686 11.8555 6.97006C12.055 6.89656 12.2464 6.80001 12.4109 6.67696C12.534 6.58552 12.6425 6.47872 12.7245 6.35354C12.7326 6.34115 12.7408 6.32833 12.748 6.3155C12.7608 6.31124 12.7741 6.30823 12.7873 6.30353C12.9416 6.24884 13.0911 6.14928 13.2227 6.00359C13.3539 5.85747 13.4684 5.66521 13.5598 5.42254C13.596 5.32602 13.5473 5.22006 13.4521 5.18334ZM2.69483 8.97512C2.49744 8.97512 2.33764 8.81491 2.33764 8.61793C2.33764 8.42053 2.49744 8.26074 2.69483 8.26074C2.89223 8.26074 3.05203 8.42053 3.05203 8.61793C3.05203 8.81491 2.89223 8.97512 2.69483 8.97512ZM12.5036 5.90023C12.5014 5.9293 12.4963 5.95749 12.489 5.98612C12.4861 5.98612 12.4822 5.98612 12.4788 5.98612C12.4044 5.98612 12.3305 5.97116 12.2622 5.94426C12.1596 5.90368 12.0695 5.83617 12.0084 5.76097C11.9785 5.72381 11.9554 5.68405 11.9409 5.64646C11.9259 5.60886 11.9186 5.57296 11.9186 5.54094C11.9186 5.52683 11.9204 5.51316 11.9225 5.50121C11.9276 5.47302 11.937 5.44994 11.952 5.42686C11.9729 5.39437 12.005 5.36618 12.0455 5.34483C12.0861 5.32517 12.134 5.31322 12.181 5.31322C12.2194 5.31322 12.2575 5.32005 12.2929 5.33545C12.319 5.34743 12.3442 5.36279 12.3677 5.38415C12.4032 5.41663 12.4365 5.46276 12.463 5.53112C12.4886 5.59904 12.5065 5.69048 12.5065 5.80841C12.5066 5.83702 12.5057 5.86778 12.5036 5.90023Z" fill="white"/>
<path d="M8.04601 2.08238L8.33485 1.63208H8.29041H8.00246H7.95843L7.5658 2.24302L7.17443 1.63208H7.13H6.84204H6.79805L7.08729 2.08238H6.7395V2.15074V2.35923V2.42759H7.30902L7.37054 2.52329V2.75145H6.7395V3.04712V3.09325H7.37054V3.56408H7.76276V3.09325H8.39336V3.04712V2.75145H7.76276V2.52245L7.82385 2.42759H8.39336V2.35923V2.15074V2.08238H8.04601Z" fill="white"/>
<path d="M7.56677 0C6.13166 0 4.96826 1.16339 4.96826 2.5985C4.96826 4.0332 6.13166 5.19616 7.56677 5.19616C9.00188 5.19616 10.1649 4.0332 10.1649 2.5985C10.1649 1.16339 9.00188 0 7.56677 0ZM7.56677 4.7903C6.35809 4.7903 5.37456 3.80677 5.37456 2.59853C5.37456 1.38942 6.35809 0.405891 7.56677 0.405891C8.77544 0.405891 9.75897 1.38942 9.75897 2.59853C9.75897 3.80677 8.77544 4.7903 7.56677 4.7903Z" fill="white"/>
<path d="M7.62744 0.851929H7.63001C7.6736 0.851929 7.70948 0.817312 7.7112 0.773315C7.71248 0.728034 7.67787 0.691284 7.63302 0.689562H7.62446H7.62362H7.62233H7.62189H7.62146H7.62102H7.61973H7.61889C7.60691 0.688714 7.59496 0.688714 7.58257 0.688714H7.58085H7.58041H7.57957H7.57872H7.57828H7.57784L7.57741 0.687866H7.57656H7.57612H7.57568H7.57483H7.57399H7.57355H7.5727H7.57185H7.57101H7.57057H7.56972H7.56887H7.56844H7.568H7.56756H7.56671H7.56543H7.56499H7.56455H7.56412H7.56327H7.56283H7.56155H7.56111H7.56067H7.55982H7.55898H7.55769H7.55684H7.5564H7.55556L7.55512 0.688714H7.55383H7.55299H7.55214H7.5517H7.55126H7.54998H7.54954H7.5491H7.54826H7.54782H7.54738H7.5461H7.54566H7.54522H7.54437H7.54394H7.5435H7.54221H7.54178H7.54134H7.54049H7.54005H7.53962H7.53833H7.53789H7.53746H7.53661H7.53617H7.53573H7.53445H7.53401H7.53357H7.53273H7.53188H7.53059H7.53016H7.52972H7.52887H7.52802H7.52674H7.5263H7.52586H7.52501H7.52458H7.52414H7.52285H7.52242H7.52198H7.52113H7.52069H7.52026H7.51982H7.51897H7.51853H7.5181H7.51766H7.51722H7.51637H7.51594L7.51509 0.689562H7.51424H7.5138H7.51337H7.51252H7.51123H7.51039H7.50995H7.5091H7.50866H7.50738H7.50653H7.50568H7.50525H7.50481H7.50352H7.50309H7.50265H7.5018H7.50136H7.50092H7.50008H7.49964H7.4992H7.49877H7.49833H7.49789H7.49704H7.49619H7.49576H7.49491H7.49447H7.49403H7.49319H7.49234H7.4919H7.49105H7.49062H7.48977H7.48933H7.48848L7.48805 0.690409H7.48761H7.48717H7.48632H7.48589H7.48545H7.4846H7.48375H7.48247H7.48162H7.48077H7.47992H7.47908H7.47864H7.47779H7.47694H7.4761H7.47525H7.47481H7.47437H7.47309H7.47224H7.4718H7.47137H7.47093H7.47049H7.47005H7.46833H7.46705H7.4662L7.46448 0.691257H7.46404H7.46319H7.46275H7.46232H7.46103H7.46059H7.45975H7.4589H7.45846H7.45717H7.45674H7.45589H7.4546H7.45332H7.45288H7.45203H7.45119H7.44905H7.44821L7.44736 0.691694L7.44523 0.692132H7.44438H7.44181H7.44052H7.43967H7.43795L7.4371 0.692979H7.43667H7.43325H7.43281C7.39606 0.695112 7.35931 0.698968 7.323 0.704081C7.27857 0.709222 7.24737 0.749362 7.25251 0.794233C7.25806 0.835687 7.29268 0.865573 7.33325 0.865573L7.34351 0.864726C7.41657 0.855319 7.49133 0.851054 7.56611 0.851054C7.58684 0.851081 7.60735 0.851081 7.62744 0.851929Z" fill="white"/>
<path d="M6.85016 0.913028C6.83649 0.883962 6.80701 0.86731 6.77666 0.86731C6.76512 0.86731 6.75317 0.86988 6.74204 0.874993C6.71426 0.887817 6.68692 0.902337 6.66001 0.916446L6.65531 0.919427H6.65446L6.65317 0.920712L6.65233 0.921149H6.65189L6.65017 0.921997L6.64973 0.922845H6.64929H6.64844H6.64801L6.64757 0.923692L6.64672 0.92413H6.64628L6.64585 0.924567H6.64541H6.64497L6.64453 0.925415H6.6441H6.64366H6.64322L6.64278 0.926263H6.64235H6.64191H6.64147L6.64103 0.92711H6.6406H6.64016H6.63972V0.927958H6.63887L6.63844 0.928806H6.638H6.63715H6.63671L6.63652 0.929681H6.63608L6.63565 0.930528H6.6348L6.63436 0.931376H6.63392H6.63349L6.63305 0.931813L6.63176 0.932251H6.63133H6.63089L6.62876 0.933974H6.62832L6.62575 0.935696C6.59326 0.954509 6.56081 0.973731 6.5292 0.994239C6.49204 1.0186 6.48091 1.06859 6.50571 1.10659C6.5211 1.13008 6.54716 1.14334 6.57363 1.14334C6.58903 1.14334 6.60396 1.13908 6.61763 1.13011C6.68 1.09038 6.74538 1.05319 6.81245 1.02117C6.85229 1.00231 6.86982 0.953606 6.85016 0.913028Z" fill="white"/>
<path d="M6.98986 4.24854C6.92021 4.22461 6.85142 4.19554 6.78478 4.16224C6.77324 4.15625 6.76086 4.15283 6.74847 4.15283C6.71899 4.15283 6.69036 4.16907 6.67584 4.19811C6.65577 4.23828 6.67199 4.28698 6.71216 4.30664C6.73693 4.31946 6.76258 4.33141 6.78779 4.34254L6.79036 4.34427L6.79249 4.34511L6.79378 4.34596H6.79421H6.79506H6.7955L6.79594 4.34681H6.79722L6.79807 4.34766H6.79892H6.79936H6.79979L6.80064 4.3485H6.80108H6.80152L6.80236 4.34935H6.80321H6.80365V4.3502H6.8045H6.80493L6.80537 4.35105H6.80581H6.80625H6.80668H6.80712L6.80756 4.35189H6.80841H6.80925L6.80969 4.35274H6.81013H6.81057H6.811H6.81144L6.81229 4.35359H6.81273H6.81316L6.8136 4.35444H6.81445H6.81489H6.81532L6.81576 4.35529H6.8162H6.81792H6.81836H6.8188L6.82052 4.35701H6.82096H6.82139L6.82224 4.35786H6.82309H6.82353L6.82396 4.3587H6.82481L6.82695 4.35955L6.82738 4.3604H6.82782H6.82954L6.82998 4.36125L6.83211 4.36209H6.83255H6.83299L6.83471 4.36294H6.83556L6.83813 4.36379V4.36464L6.84111 4.36548H6.84155H6.84198L6.84327 4.36633H6.84412L6.84625 4.36718L6.84669 4.36803H6.84713H6.84756H6.848L6.84929 4.36888H6.85057L6.85229 4.3706H6.85314H6.85527L6.85571 4.37145H6.85615L6.85787 4.37229H6.85831H6.85875L6.86047 4.37314H6.86091V4.37399H6.86134H6.86219H6.86391H6.86476V4.375L6.86648 4.37585H6.86692L6.86736 4.3767H6.86821H6.86949H6.86993H6.87037H6.8708L6.87209 4.37754L6.87253 4.37839H6.87296H6.8734H6.87384H6.87469V4.37924H6.87554H6.87597H6.87641V4.38009H6.87685H6.8777H6.87813H6.87857L6.87942 4.38093H6.87986H6.88029V4.38178H6.88158H6.88202H6.8833H6.88374H6.88418V4.38263H6.88461H6.88546L6.8859 4.38348H6.88634H6.88718L6.88762 4.38432H6.88847H6.88975H6.89019L6.89148 4.38517H6.89191H6.8932H6.89364V4.38602H6.89407H6.8958L6.89664 4.38774C6.91032 4.39201 6.92355 4.39715 6.93722 4.40141C6.94578 4.40483 6.95516 4.40655 6.96413 4.40655C6.99746 4.40655 7.02907 4.3852 7.04061 4.35187C7.0548 4.31006 7.03216 4.26305 6.98986 4.24854Z" fill="white"/>
<path d="M6.1863 3.67089C6.17091 3.65038 6.14698 3.63928 6.12264 3.63928C6.10512 3.63928 6.08718 3.64527 6.07266 3.65637C6.03763 3.68456 6.03121 3.73499 6.05814 3.77089C6.0731 3.7897 6.08805 3.80849 6.10386 3.82642L6.10514 3.82815L6.10558 3.82899H6.10602L6.10687 3.82984V3.83069H6.1073H6.10774L6.10818 3.83154L6.10862 3.83238H6.10905L6.10949 3.83323H6.10993L6.11037 3.83408L6.1108 3.83493H6.11124L6.11168 3.83577L6.11212 3.83662H6.11255H6.11299V3.83747H6.11384V3.83832H6.11428H6.11471V3.83917L6.11515 3.84001H6.11559L6.11644 3.84086H6.11688L6.11772 3.84171L6.11857 3.84343L6.11942 3.84428C6.15103 3.88188 6.18521 3.91778 6.22067 3.95281C6.23607 3.9682 6.25698 3.97673 6.27749 3.97673C6.298 3.97673 6.31936 3.96817 6.33516 3.95281C6.36677 3.92032 6.36677 3.86905 6.33472 3.83744C6.282 3.78541 6.23243 3.729 6.1863 3.67089Z" fill="white"/>
<path d="M5.74781 2.48917C5.78839 2.48917 5.82386 2.45841 5.82815 2.41567C5.83583 2.34217 5.84822 2.2687 5.86531 2.19692C5.87513 2.15249 5.84866 2.10975 5.80463 2.09865L5.78582 2.09692C5.74907 2.09692 5.71574 2.1217 5.70721 2.1593C5.68839 2.23791 5.67516 2.31737 5.66704 2.3994C5.6619 2.44383 5.69438 2.484 5.73925 2.48827L5.74781 2.48917Z" fill="white"/>
<path d="M6.07683 1.68379C6.11571 1.62099 6.1593 1.56031 6.20542 1.5022C6.23362 1.46718 6.22806 1.41591 6.19345 1.38769C6.17849 1.37571 6.16012 1.36975 6.14262 1.36975C6.11913 1.36975 6.0952 1.38085 6.07937 1.40051C6.06613 1.41591 6.05287 1.433 6.04005 1.45009L6.0392 1.45093L6.03876 1.45178L6.03704 1.45435L6.03532 1.45692L6.0336 1.45865H6.03316L6.03187 1.46122L6.02802 1.46636C6.00666 1.49455 5.98615 1.52446 5.96649 1.55479L5.96436 1.55692V1.55777L5.96351 1.55949V1.56034H5.96308H5.96264L5.96179 1.56162V1.56206L5.96135 1.5625H5.96092L5.96048 1.56378L5.96004 1.56463H5.9596V1.56548H5.95917H5.95873V1.56633V1.56717H5.95829H5.95785V1.56802L5.95742 1.56887L5.95698 1.56931L5.95654 1.56974L5.9561 1.57018V1.57062L5.95567 1.57147H5.95523V1.5719V1.57229H5.95479L5.95351 1.57486C5.94837 1.58254 5.94369 1.59066 5.93811 1.59878C5.91503 1.63723 5.92657 1.6868 5.96502 1.71073C5.97784 1.71841 5.9928 1.7227 6.00688 1.7227C6.03537 1.72268 6.06143 1.70944 6.07683 1.68379Z" fill="white"/>
<path d="M5.8586 2.97108C5.85048 2.93263 5.81674 2.90698 5.77955 2.90698L5.76203 2.90871C5.71844 2.91811 5.69069 2.9617 5.70006 3.00441C5.71715 3.08559 5.73938 3.16336 5.76673 3.2394C5.77827 3.27188 5.80988 3.29324 5.84321 3.29324C5.85218 3.29324 5.86158 3.29152 5.87055 3.2881C5.91242 3.27271 5.93506 3.22742 5.91969 3.18471C5.89492 3.11463 5.87441 3.04285 5.8586 2.97108Z" fill="white"/>
<path d="M8.53283 4.06995C8.51787 4.06995 8.50335 4.07421 8.49009 4.08277C8.42685 4.12122 8.36065 4.15712 8.29355 4.18788C8.25253 4.20669 8.23459 4.25454 8.25382 4.29556C8.26749 4.32547 8.29655 4.34341 8.32731 4.34341C8.33842 4.34341 8.35039 4.34084 8.36106 4.33573C8.40634 4.31522 8.44992 4.29214 8.49266 4.26906L8.49395 4.26822H8.49439L8.49567 4.26737H8.49652L8.49824 4.26652L8.49868 4.26567H8.49996L8.5004 4.26483L8.50169 4.26398H8.50212L8.50341 4.26313H8.50385H8.50428V4.26228H8.50472H8.50557H8.50601V4.26143H8.50644H8.50688L8.50773 4.26059H8.50817H8.5086L8.50945 4.25974H8.50989L8.51161 4.25889V4.25804H8.51246L8.51418 4.2572H8.51547C8.53554 4.24522 8.55605 4.23242 8.57614 4.22045C8.61374 4.19567 8.62528 4.1461 8.60179 4.1085C8.58623 4.08362 8.55976 4.06995 8.53283 4.06995Z" fill="white"/>
<path d="M9.15268 3.51367C9.13857 3.50511 9.12361 3.5 9.10824 3.5C9.08175 3.5 9.05569 3.51367 9.04032 3.53845C9.00015 3.59997 8.95616 3.66149 8.90831 3.7179C8.87968 3.75208 8.88394 3.80335 8.91856 3.83242C8.93352 3.84524 8.9523 3.85123 8.97068 3.85123C8.99376 3.85123 9.01724 3.84098 9.03305 3.82216C9.07491 3.77174 9.11464 3.71962 9.15098 3.66494L9.15142 3.66409L9.15314 3.66237V3.66152L9.15358 3.66067L9.15443 3.65982H9.15487V3.65898L9.1553 3.65813H9.15615V3.65728H9.15659L9.15703 3.65643L9.15746 3.65559L9.15831 3.65474H9.15875V3.65389L9.15919 3.65304L9.15962 3.6522H9.16006L9.1605 3.65135L9.16094 3.6505V3.64965H9.16137H9.16222L9.16266 3.64793L9.1631 3.64708L9.16482 3.64536V3.64451L9.1772 3.6257C9.20097 3.58802 9.18984 3.5376 9.15268 3.51367Z" fill="white"/>
<path d="M9.36034 2.32074L9.37614 2.3199C9.42014 2.31049 9.44877 2.26778 9.4398 2.22419L9.43767 2.21394V2.21309L9.43723 2.21137V2.21052V2.20967L9.43679 2.20883V2.20795H9.43635V2.2071V2.20625L9.43592 2.20541H9.43548V2.20456V2.20371V2.20286V2.20202V2.20111H9.43504V2.20027V2.19942L9.4346 2.19857V2.19772H9.43417V2.19688V2.19603V2.19518L9.43373 2.19433H9.43329V2.19349V2.19176L9.43285 2.19091V2.19007H9.43242L9.43198 2.18834V2.18744L9.43154 2.18572V2.18487L9.4311 2.1823H9.43067V2.18061L9.43023 2.17888L9.42979 2.17804L9.42935 2.17547L9.42851 2.1712H9.42807C9.41866 2.13018 9.408 2.08917 9.39558 2.04815L9.39474 2.04474L9.39345 2.03875H9.39301L9.39217 2.03577L9.39132 2.03279V2.03235L9.39088 2.03191L9.39003 2.02934L9.38919 2.02636L9.38875 2.02592L9.38831 2.02379V2.02338V2.02253H9.38787L9.38744 2.02081V2.02037V2.01993L9.387 2.01909V2.01824L9.38615 2.01739V2.01654L9.38571 2.01611V2.01567V2.01523L9.38528 2.01479V2.01436L9.38484 2.01392V2.01263L9.3844 2.01135L9.38396 2.01091V2.01047V2.00919H9.38353V2.0079V2.00706H9.38309V2.00621H9.38265L9.38221 2.00536V2.00451V2.00366H9.38178V2.00323L9.38134 2.00279V2.0015V2.00107L9.3809 2.00063V2.00019L9.38046 1.99934L9.38003 1.9985V1.99765L9.37959 1.9968V1.99604H9.37915V1.99519H9.37871V1.9939L9.37828 1.99262H9.37784V1.99177V1.99092L9.3774 1.9892L9.37655 1.98835C9.36501 1.95502 9.33341 1.93323 9.29964 1.93323C9.29108 1.93323 9.28255 1.93495 9.27399 1.93793C9.23125 1.95204 9.20861 1.99776 9.22316 2.04047C9.24623 2.11055 9.26589 2.18233 9.28041 2.2558C9.28856 2.29425 9.3223 2.32074 9.36034 2.32074Z" fill="white"/>
<path d="M7.76791 4.33484L7.75894 4.33569C7.69569 4.34252 7.63119 4.34594 7.56668 4.34594C7.55687 4.34594 7.54618 4.34594 7.53636 4.34594H7.53464C7.4902 4.34594 7.4543 4.38097 7.45389 4.4254C7.45261 4.46983 7.48851 4.50658 7.53294 4.50743C7.54191 4.50828 7.55003 4.50828 7.559 4.50828H7.55944H7.55987H7.56116H7.5616H7.56204H7.56288H7.56332H7.56417H7.56461H7.56545H7.56674H7.56718H7.56761H7.56805H7.56849H7.56893H7.56936H7.5698H7.57024H7.57068H7.57111H7.57155H7.57199H7.57243H7.57286H7.57371H7.57456H7.575H7.57584H7.57628H7.57672H7.57844H7.57888H7.57932H7.57975H7.5806H7.58104H7.58148H7.58191H7.58235H7.58279H7.58323H7.58366H7.5841H7.58454H7.58498H7.58541H7.58585H7.5867H7.58755H7.58927H7.58971H7.59014H7.59058H7.59102H7.59146H7.5923H7.59274H7.59318H7.59362H7.59446H7.5949H7.59534H7.59578H7.59621H7.59665H7.59709H7.59794L7.60007 4.50743H7.60092H7.60177H7.6022H7.60264H7.60308H7.60393H7.60436H7.60521H7.60606H7.60691H7.60775H7.6086H7.61202H7.61287H7.6133H7.61415H7.61459H7.61503H7.61631H7.61675H7.6176H7.61804H7.61847H7.62487H7.62616H7.62659C7.67786 4.50571 7.72744 4.50229 7.77742 4.49633C7.82142 4.49207 7.8539 4.4519 7.8492 4.40746C7.84398 4.3656 7.80892 4.33484 7.76791 4.33484Z" fill="white"/>
<path d="M9.39203 2.7395H9.38177C9.3416 2.7395 9.30614 2.76942 9.30144 2.81043C9.29247 2.88393 9.27921 2.9574 9.26086 3.02918C9.24976 3.07277 9.27582 3.1172 9.3194 3.1283L9.33947 3.13087C9.37578 3.13087 9.40868 3.1061 9.41808 3.06935C9.42194 3.05311 9.42621 3.03687 9.43006 3.01978V3.01893L9.4305 3.01721V3.01636H9.43094V3.01551L9.43137 3.01466V3.01381V3.01297V3.01212H9.43181V3.01127V3.01042V3.00958L9.43225 3.00873L9.4326 3.0078L9.43304 3.00695V3.0061L9.43348 3.00438V3.00266L9.43392 3.00181L9.43435 3.00009L9.4352 2.99667C9.44674 2.94198 9.45615 2.88645 9.46255 2.83004C9.46807 2.78563 9.43646 2.74462 9.39203 2.7395Z" fill="white"/>
<path d="M8.41275 1.05784C8.44181 1.05784 8.47042 1.04245 8.48496 1.01426C8.50547 0.974525 8.49051 0.925389 8.45035 0.904443C8.40121 0.878385 8.35079 0.854869 8.29867 0.833951L8.2961 0.832229H8.29566L8.29353 0.831381H8.29268L8.29096 0.830533H8.29011L8.28798 0.828811L8.285 0.827963H8.28456L8.28412 0.827525L8.2824 0.827088L8.28112 0.82665L8.27939 0.825365L8.27855 0.824928L8.27682 0.82449L8.27597 0.823643L8.2734 0.823205L8.27083 0.82192C8.25631 0.816779 8.24221 0.811229 8.22769 0.805678C8.21828 0.80226 8.20931 0.800537 8.1999 0.800537C8.16657 0.800537 8.1354 0.821045 8.12386 0.854377C8.10806 0.895393 8.12941 0.942397 8.17171 0.958639C8.24092 0.983412 8.30928 1.01417 8.3751 1.04835C8.3871 1.05442 8.39949 1.05784 8.41275 1.05784Z" fill="white"/>
<path d="M9.03012 1.58257C9.04677 1.58257 9.06386 1.57658 9.07882 1.56548C9.11428 1.53899 9.12156 1.48815 9.09462 1.45184C9.06728 1.41594 9.03865 1.38091 9.00917 1.34673L9.00789 1.34501L9.00745 1.34457L9.00617 1.34329L9.00573 1.34244L9.00529 1.342L9.00485 1.34156H9.00442L9.00398 1.34028L9.00362 1.3399L9.00277 1.33905L9.00234 1.3382H9.0019V1.33735H9.00105L9.00061 1.33691L9.00018 1.33648L8.99974 1.33563L8.9993 1.33478H8.99886H8.99843V1.33393H8.99799L8.99714 1.33309L8.99629 1.33224V1.33139H8.99586V1.33095H8.99542L8.99498 1.33052V1.33008L8.99413 1.32964L8.9937 1.32879L8.99241 1.32707H8.99197L8.99154 1.32663L8.99025 1.32535L8.98981 1.32491H8.98938L8.98853 1.32363V1.32278H8.98809L8.98637 1.32106V1.32062L8.98593 1.32018H8.98549L8.98465 1.3189L8.98421 1.31846L8.98208 1.31589L8.98035 1.31416L8.9765 1.30946H8.97606C8.96324 1.29535 8.94956 1.28083 8.93633 1.26716C8.92009 1.25092 8.89917 1.2428 8.87779 1.2428C8.85728 1.2428 8.83762 1.25048 8.82138 1.26544C8.78933 1.29705 8.78804 1.34832 8.81965 1.3808C8.87136 1.43379 8.92006 1.49102 8.96449 1.55C8.98054 1.57147 9.00491 1.58257 9.03012 1.58257Z" fill="white"/>
</g>
<defs>
<clipPath id="clip0_183_2274">
<rect width="14" height="14" fill="white"/>
</clipPath>
</defs>
</svg>
