<svg width="15" height="16" viewBox="0 0 15 16" fill="none" xmlns="http://www.w3.org/2000/svg">
<path d="M13.75 5.38125V8.3125H11.2C11.125 8.30625 10.9625 8.2125 10.925 8.14375L10.275 6.9125C10.0188 6.425 9.575 6.15 9.1 6.175C8.625 6.2 8.21875 6.51875 8.0125 7.0375L7.15 9.2L7.025 8.875C6.71875 8.08125 5.84375 7.48125 4.98125 7.48125L1.25 7.5V5.38125C1.25 3.10625 2.60625 1.75 4.88125 1.75H10.1188C12.3938 1.75 13.75 3.10625 13.75 5.38125Z" fill="white"/>
<path d="M13.75 10.6179V9.24917H11.2C10.7812 9.24917 10.2875 8.94918 10.0938 8.58043L9.44375 7.34918C9.26875 7.01793 9.01875 7.03668 8.88125 7.38043L7.44375 11.0117C7.2875 11.4179 7.025 11.4179 6.8625 11.0117L6.15 9.21167C5.98125 8.77417 5.45625 8.41793 4.9875 8.41793L1.25 8.43667V10.6179C1.25 12.8554 2.5625 14.2054 4.76875 14.2429C4.8375 14.2492 4.9125 14.2492 4.98125 14.2492H9.98125C10.075 14.2492 10.1687 14.2492 10.2563 14.2429C12.45 14.1929 13.75 12.8492 13.75 10.6179Z" fill="white"/>
<path d="M1.25044 8.43701V10.5058C1.23794 10.3058 1.23169 10.0933 1.23169 9.87451V8.43701H1.25044Z" fill="white"/>
</svg>
