<svg width="20" height="20" viewBox="0 0 20 20" fill="none" xmlns="http://www.w3.org/2000/svg">
<g clip-path="url(#clip0_183_2235)">
<path fill-rule="evenodd" clip-rule="evenodd" d="M11.0205 10.8219L12.0703 10.5615L12.4902 10.3467L13.2942 9.42706C13.3639 9.37821 13.4473 9.35301 13.5324 9.35516C13.6174 9.35731 13.6995 9.3867 13.7666 9.43901C13.8336 9.49132 13.8821 9.56377 13.9049 9.64572C13.9277 9.72766 13.9236 9.81475 13.8932 9.89418L13.3545 10.7275C13.0696 11.1702 13.1282 11.0807 12.6481 11.3102C12.373 11.4437 12.0442 11.5836 11.7317 11.6992L12.9557 12.7116C13.4684 12.6416 13.9664 12.5488 14.471 12.4756C15.0488 12.3909 15.0602 12.4658 15.485 12.8011L17.4739 14.3538C17.9996 14.8177 17.6025 15.2962 17.1305 15.2116L15.2701 13.8965C14.8567 13.6051 14.93 13.6409 14.4287 13.8297C13.859 14.0446 13.2243 14.3424 12.6204 14.318C11.8815 14.2887 11.7187 13.859 11.2125 13.4196C10.9131 13.1895 10.6455 12.9208 10.4166 12.6204C10.2913 12.4267 10.1595 12.2689 10.0797 12.111C10.0283 12.0222 10.0012 11.9214 10.0012 11.8188C10.0012 11.7162 10.0283 11.6154 10.0797 11.5267C10.2897 11.1247 10.4231 10.957 11.027 10.8219H11.0205ZM5.94072 7.94106V16.1539H6.49411L7.70179 15.3711H7.06051V14.5573H10.5013L8.26494 12.0817L8.86716 11.5397L11.5934 14.5605H14.8812C14.9393 14.5603 14.9967 14.5726 15.0496 14.5968C15.1024 14.621 15.1493 14.6564 15.1871 14.7005L17.749 16.1556H20V17.2672H0.0650719V16.1539H5.06995V7.94106H0.315723C0.23254 7.94106 0.152716 7.90824 0.0935934 7.84973C0.0344705 7.79122 0.000825315 7.71174 -3.22371e-05 7.62856C-0.000798352 7.61827 -0.000798352 7.60793 -3.22371e-05 7.59764C-0.014162 6.98372 0.130481 6.37655 0.41989 5.83494C2.679 1.75616 8.04359 1.68943 10.498 5.70961C10.8425 6.28877 11.012 6.9552 10.9863 7.62856C10.9863 7.7106 10.9541 7.78936 10.8965 7.84782C10.8389 7.90629 10.7607 7.93978 10.6787 7.94106H5.94072ZM7.58949 16.1556H16.6015L14.7151 15.3727H8.79717L7.58949 16.1556ZM7.34209 3.73045C8.04359 4.74445 8.39352 6.09698 8.4098 7.31118H10.3532C10.2539 5.82517 8.693 4.34405 7.34209 3.73045ZM6.42087 3.33169C6.22372 3.29756 6.02485 3.2742 5.82516 3.2617V7.31443H7.77829C7.76689 6.38833 7.19072 3.82648 6.41761 3.33169H6.42087ZM5.19202 3.26007C4.99512 3.27095 4.79897 3.29268 4.60446 3.32517C3.81995 3.82159 3.25518 6.37856 3.23564 7.3128H5.18877V3.26007H5.19202ZM3.68649 3.70929C2.32581 4.32615 0.743783 5.76821 0.641244 7.31443H2.60413C2.61716 6.11163 2.97523 4.71027 3.68161 3.71417L3.68649 3.70929ZM9.88766 8.76951C9.68701 8.78844 9.49648 8.86646 9.34017 8.99369C9.18386 9.12093 9.0688 9.29166 9.00954 9.4843C8.95028 9.67693 8.94948 9.88282 9.00724 10.0759C9.06501 10.269 9.17874 10.4406 9.33406 10.5691C9.48937 10.6975 9.67929 10.777 9.87979 10.7975C10.0803 10.818 10.2824 10.7785 10.4605 10.6842C10.6385 10.5898 10.7846 10.4447 10.8803 10.2673C10.9759 10.0899 11.0168 9.88812 10.9977 9.68748C10.9717 9.41876 10.8403 9.17128 10.6323 8.99923C10.4242 8.82718 10.1565 8.74458 9.88766 8.76951Z" fill="white"/>
</g>
<defs>
<clipPath id="clip0_183_2235">
<rect width="20" height="20" fill="white"/>
</clipPath>
</defs>
</svg>
