<svg width="20" height="20" viewBox="0 0 20 20" fill="none" xmlns="http://www.w3.org/2000/svg">
<path d="M4.87995 8.31995C4.41328 8.31995 4.01662 8.48328 3.68995 8.80995C3.36328 9.13661 3.19995 9.53328 3.19995 9.99995C3.19995 10.4666 3.36328 10.8633 3.68995 11.1899C4.01662 11.5166 4.41328 11.6799 4.87995 11.6799C5.34662 11.6799 5.74328 11.5166 6.06995 11.1899C6.39662 10.8633 6.55995 10.4666 6.55995 9.99995C6.55995 9.53328 6.39662 9.13661 6.06995 8.80995C5.74328 8.48328 5.34662 8.31995 4.87995 8.31995ZM9.99995 8.31995C9.53329 8.31995 9.13662 8.48328 8.80995 8.80995C8.48328 9.13661 8.31995 9.53328 8.31995 9.99995C8.31995 10.4666 8.48328 10.8633 8.80995 11.1899C9.13662 11.5166 9.52995 11.6799 9.98995 11.6799C10.45 11.6799 10.8466 11.5166 11.18 11.1899C11.5133 10.8633 11.68 10.4666 11.68 9.99995C11.68 9.53328 11.5133 9.13661 11.18 8.80995C10.8466 8.48328 10.4466 8.31995 9.97995 8.31995H9.99995ZM15.12 8.31995C14.6533 8.31995 14.2566 8.48328 13.93 8.80995C13.6033 9.13661 13.44 9.53328 13.44 9.99995C13.44 10.4666 13.6033 10.8633 13.93 11.1899C14.2566 11.5166 14.6533 11.6799 15.12 11.6799C15.5866 11.6799 15.9833 11.5166 16.31 11.1899C16.6366 10.8633 16.8 10.4666 16.8 9.99995C16.8 9.53328 16.6366 9.13661 16.31 8.80995C15.9833 8.48328 15.5866 8.31995 15.12 8.31995Z" fill="white"/>
</svg>
