<svg width="20" height="20" viewBox="0 0 20 20" fill="none" xmlns="http://www.w3.org/2000/svg">
<g clip-path="url(#clip0_240_1275)">
<path d="M10.527 11.3956L7.75706 12.2454L8.61019 9.4649C8.5837 9.46369 8.55683 9.46326 8.52991 9.46326C7.42827 9.46326 6.53198 10.36 6.53198 11.4616C6.53198 12.5632 7.42827 13.4595 8.52991 13.4595C9.63194 13.4595 10.5282 12.5632 10.5282 11.4616C10.5282 11.4396 10.5278 11.4176 10.527 11.3956Z" fill="white"/>
<path d="M13.0353 9.93916L12.0445 10.93L11.7214 11.029C11.7405 11.1715 11.7503 11.3158 11.7503 11.4616C11.7503 13.2375 10.3057 14.6818 8.52979 14.6818C6.75432 14.6818 5.30963 13.2375 5.30963 11.4616C5.30963 9.68572 6.75428 8.24107 8.52979 8.24107C8.67971 8.24107 8.82881 8.25126 8.97588 8.27205L9.07244 7.95794L10.0685 6.96185C9.576 6.79361 9.0549 6.70642 8.52975 6.70642C5.90807 6.70642 3.7749 8.83958 3.7749 11.4617C3.7749 14.0837 5.90807 16.2169 8.52975 16.2169C11.1518 16.2169 13.285 14.0837 13.285 11.4617C13.285 10.9426 13.1999 10.4272 13.0353 9.93916Z" fill="white"/>
<path d="M9.97163 9.19482L9.60132 10.4012L10.7917 10.0361L9.97163 9.19482Z" fill="white"/>
<path d="M17.0279 0.00280762L15.406 1.62468L15.8354 2.05941L16.2648 2.4941L17.5009 3.74566L17.9303 4.18035L18.3597 4.61507L19.9999 2.97484L17.0279 0.00280762Z" fill="white"/>
<path d="M15.4179 7.55694H15.4175L14.9661 8.00834L13.9769 8.99795C14.3248 9.76795 14.5073 10.6109 14.5073 11.4615C14.5073 14.7574 11.8258 17.439 8.52988 17.439C5.23398 17.439 2.55281 14.7574 2.55281 11.4615C2.55281 8.16557 5.23395 5.48405 8.52988 5.48405C9.38707 5.48405 10.2349 5.66901 11.0089 6.02143H11.0093L11.9957 5.03471H11.9961L12.4471 4.58331L12.8916 4.13924C12.9767 4.18975 13.0611 4.2419 13.1441 4.29569C13.2362 4.35518 13.3266 4.41588 13.4159 4.47901C13.5846 4.59674 13.7487 4.721 13.908 4.85096L13.8038 4.95526L13.4766 5.28241L10.6349 8.12409L11.8624 9.38377L14.282 6.9642L14.7195 6.52706V6.52667L15.151 6.09522H15.1514C15.2809 6.25452 15.4048 6.41913 15.5229 6.58776C15.6423 6.75807 15.7555 6.93323 15.8623 7.11249L17.4956 5.4792L17.0662 5.04452L16.6368 4.60983L15.4007 3.35827L14.9713 2.92358L14.5415 2.48889L12.9396 4.09124L12.8915 4.13889C11.6143 3.37581 10.1223 2.93706 8.52981 2.93706C3.82676 2.93694 0 6.7637 0 11.4672C0 16.1703 3.82676 19.9971 8.52988 19.9971C13.2334 19.9971 17.0602 16.1703 17.0602 11.4672C17.0602 9.87753 16.623 8.38803 15.8624 7.11245L15.4179 7.55694Z" fill="white"/>
</g>
<defs>
<clipPath id="clip0_240_1275">
<rect width="20" height="20" fill="white"/>
</clipPath>
</defs>
</svg>
