<svg width="20" height="20" viewBox="0 0 20 20" fill="none" xmlns="http://www.w3.org/2000/svg">
<g clip-path="url(#clip0_183_2357)">
<path d="M8.97805 7.52265C9.156 7.40505 9.3219 7.29442 9.47253 7.20327C9.83117 6.98656 9.9465 6.51994 9.72904 6.16142C9.51282 5.80275 9.04603 5.68832 8.68765 5.90454C8.52034 6.00547 8.33591 6.12758 8.139 6.25789C7.50215 6.68014 6.53344 7.33727 5.98988 7.18362C5.59256 7.07134 5.54464 6.79766 5.41387 6.59932C5.13242 6.07994 4.53445 5.73521 3.99411 5.74648C3.99411 5.74648 3.51217 5.74648 2.92505 5.97748C0.279461 6.92096 0.272402 7.54688 0.272732 7.85301C0.273104 8.13218 0.278842 8.40194 1.06199 8.85738H0.00251804L0 17.6791H6.60742L7.04601 13.6417C7.04601 13.6417 4.85511 13.4803 3.76397 13.3223C2.45307 13.1325 2.22384 11.924 2.22384 11.924L1.54162 9.11075C1.93257 9.30117 2.44015 9.51958 3.11023 9.77786C3.19993 9.81233 3.29199 9.82872 3.38268 9.82872C3.68752 9.82872 3.97475 9.64379 4.09107 9.34274C4.24166 8.95145 4.04661 8.51208 3.65557 8.36161C3.24311 8.20269 2.78148 8.00797 2.3992 7.83204C2.46466 7.80186 2.53657 7.77082 2.60745 7.73949L3.66721 8.1605C4.30692 8.40751 4.48562 8.92503 4.29648 9.41684C4.15526 9.78369 3.72905 10.2405 2.98107 9.94517C2.75011 9.85403 2.54215 9.77304 2.34512 9.6918L2.67424 11.8303C2.76799 12.439 3.14165 12.7542 3.78911 12.9286C4.10184 13.0592 7.49158 13.3165 7.49158 13.3165C7.37744 14.6445 7.145 16.8235 7.11701 17.0782C7.04101 17.6079 7.38392 18.1153 7.9142 18.2349C7.99081 18.2519 8.06751 18.2601 8.14235 18.2601C8.61574 18.2601 9.04261 17.9331 9.15084 17.4521C9.19637 17.2493 9.59406 12.5057 9.59782 12.4584C9.62172 12.1708 9.51187 11.8573 9.3172 11.6445C9.06733 11.3713 8.84335 11.1298 6.18141 11.0396L5.81972 8.6916C5.928 8.70786 6.03632 8.71868 6.14484 8.71868C7.17459 8.71872 8.1996 8.03901 8.97805 7.52265Z" fill="white"/>
<path d="M3.67837 5.64873C4.75781 5.64873 5.63286 4.77368 5.63286 3.69424C5.63286 2.6148 4.75781 1.73975 3.67837 1.73975C2.59893 1.73975 1.72388 2.6148 1.72388 3.69424C1.72388 4.77368 2.59893 5.64873 3.67837 5.64873Z" fill="white"/>
<path d="M19.9977 8.85738H18.9381C19.7213 8.40194 19.7271 8.13218 19.7274 7.85301C19.7277 7.54688 19.7207 6.92096 17.0751 5.97748C16.4879 5.74648 16.0061 5.74648 16.0061 5.74648C15.4657 5.73521 14.8678 6.07994 14.5863 6.59932C14.4555 6.79766 14.4076 7.07139 14.0103 7.18362C13.4667 7.33731 12.498 6.68014 11.8612 6.25789C11.6642 6.12762 11.4798 6.00547 11.3125 5.90454C10.9541 5.68828 10.4874 5.80275 10.2711 6.16142C10.0536 6.51993 10.1689 6.98656 10.5276 7.20327C10.6782 7.29442 10.8442 7.40505 11.0221 7.52265C11.8005 8.03901 12.8255 8.71872 13.8553 8.71872C13.9638 8.71872 14.0721 8.7079 14.1804 8.69164L13.8187 11.0396C11.1568 11.1299 10.9328 11.3713 10.6829 11.6446C10.4882 11.8573 10.3784 12.1709 10.4023 12.4585C10.4061 12.5057 10.8038 17.2494 10.8493 17.4521C10.9575 17.9331 11.3844 18.2601 11.8578 18.2601C11.9326 18.2601 12.0093 18.2519 12.0859 18.2349C12.6161 18.1154 12.9591 17.608 12.8831 17.0783C12.8551 16.8235 12.6226 14.6445 12.5086 13.3165C12.5086 13.3165 15.8983 13.0593 16.211 12.9287C16.8585 12.7542 17.2321 12.4391 17.3259 11.8304L17.655 9.69184C17.458 9.77308 17.2499 9.85402 17.019 9.94521C16.271 10.2405 15.8448 9.78368 15.7036 9.41688C15.5144 8.92507 15.6932 8.40756 16.3329 8.16054L17.3926 7.73953C17.4636 7.77086 17.5354 7.80186 17.6009 7.83208C17.2187 8.00801 16.7571 8.20273 16.3446 8.36165C15.9535 8.51212 15.7584 8.95149 15.909 9.34278C16.0254 9.64383 16.3126 9.82876 16.6174 9.82876C16.7081 9.82876 16.8002 9.81237 16.8899 9.77791C17.56 9.51966 18.0675 9.30125 18.4585 9.11079L17.7763 11.9241C17.7763 11.9241 17.547 13.1325 16.2361 13.3223C15.145 13.4803 12.9541 13.6417 12.9541 13.6417L13.3927 17.6791H20.0001L19.9977 8.85738Z" fill="white"/>
<path d="M16.3217 5.64873C17.4011 5.64873 18.2762 4.77368 18.2762 3.69424C18.2762 2.6148 17.4011 1.73975 16.3217 1.73975C15.2422 1.73975 14.3672 2.6148 14.3672 3.69424C14.3672 4.77368 15.2422 5.64873 16.3217 5.64873Z" fill="white"/>
</g>
<defs>
<clipPath id="clip0_183_2357">
<rect width="20" height="20" fill="white"/>
</clipPath>
</defs>
</svg>
