<svg width="20" height="20" viewBox="0 0 20 20" fill="none" xmlns="http://www.w3.org/2000/svg">
<g clip-path="url(#clip0_183_2356)">
<path d="M8.4375 7.5C8.26469 7.5 8.125 7.63969 8.125 7.8125V12.8125C8.125 12.9853 8.26469 13.125 8.4375 13.125C8.61031 13.125 8.75 12.9853 8.75 12.8125V7.8125C8.75 7.63969 8.61031 7.5 8.4375 7.5Z" fill="white"/>
<path d="M11.5625 7.5C11.3897 7.5 11.25 7.63969 11.25 7.8125V12.8125C11.25 12.9853 11.3897 13.125 11.5625 13.125C11.7353 13.125 11.875 12.9853 11.875 12.8125V7.8125C11.875 7.63969 11.7353 7.5 11.5625 7.5Z" fill="white"/>
<path d="M14.6875 7.5C14.5147 7.5 14.375 7.63969 14.375 7.8125V12.8125C14.375 12.9853 14.5147 13.125 14.6875 13.125C14.8603 13.125 15 12.9853 15 12.8125V7.8125C15 7.63969 14.8603 7.5 14.6875 7.5Z" fill="white"/>
<path d="M18.8988 5H4.70594L3.75 0.9375C3.61313 0.390625 3.24563 0 2.72781 0H0.9375C0.419688 0 0 0.419688 0 0.9375C0 1.45531 0.419688 1.875 0.9375 1.875H2.10094L3.15438 6.25L5.00469 14.375L5.56 16.3931C4.88094 16.6747 4.40312 17.3441 4.40312 18.125C4.40312 19.1603 5.24281 20 6.27812 20C7.20687 20 7.97594 19.3244 8.125 18.4375H12.5281C12.6775 19.3244 13.4462 20 14.375 20C15.4103 20 16.25 19.1603 16.25 18.125C16.25 17.0897 15.4103 16.25 14.375 16.25C13.4462 16.25 12.6772 16.9263 12.5281 17.8125H8.125C7.97563 16.9263 7.20687 16.25 6.27812 16.25C6.23906 16.25 6.20125 16.2537 6.16281 16.2559L5.96219 15.5503C6.09594 15.595 6.24125 15.625 6.40781 15.625H16.7106C17.5309 15.625 17.9319 15.03 18.1169 14.375L19.9709 6.25C20.1075 5.49469 19.7703 5 18.8988 5ZM14.375 17.8125C14.5478 17.8125 14.6875 17.9522 14.6875 18.125C14.6875 18.2978 14.5478 18.4375 14.375 18.4375C14.2022 18.4375 14.0625 18.2978 14.0625 18.125C14.0625 17.9522 14.2022 17.8125 14.375 17.8125ZM6.25 17.8125C6.42281 17.8125 6.5625 17.9522 6.5625 18.125C6.5625 18.2978 6.42281 18.4375 6.25 18.4375C6.07719 18.4375 5.9375 18.2978 5.9375 18.125C5.9375 17.9522 6.07719 17.8125 6.25 17.8125ZM9.375 12.8125C9.375 13.3303 8.95531 13.75 8.4375 13.75C7.91969 13.75 7.5 13.3303 7.5 12.8125V7.8125C7.5 7.29469 7.91969 6.875 8.4375 6.875C8.95531 6.875 9.375 7.29469 9.375 7.8125V12.8125ZM12.5 12.8125C12.5 13.3303 12.0803 13.75 11.5625 13.75C11.0447 13.75 10.625 13.3303 10.625 12.8125V7.8125C10.625 7.29469 11.0447 6.875 11.5625 6.875C12.0803 6.875 12.5 7.29469 12.5 7.8125V12.8125ZM15.625 12.8125C15.625 13.3303 15.2053 13.75 14.6875 13.75C14.1697 13.75 13.75 13.3303 13.75 12.8125V7.8125C13.75 7.29469 14.1697 6.875 14.6875 6.875C15.2053 6.875 15.625 7.29469 15.625 7.8125V12.8125Z" fill="white"/>
</g>
<defs>
<clipPath id="clip0_183_2356">
<rect width="20" height="20" fill="white"/>
</clipPath>
</defs>
</svg>
