<svg width="20" height="20" viewBox="0 0 20 20" fill="none" xmlns="http://www.w3.org/2000/svg">
<g clip-path="url(#clip0_183_2336)">
<path d="M18.0974 11.9256V8.61399H17.731C16.1798 8.61399 14.7963 8.88246 13.6579 9.22777C13.5224 8.95344 13.3741 8.67379 13.2299 8.41059C13.292 8.3543 13.3536 8.29656 13.4128 8.23734C14.2851 7.36563 14.8262 6.15715 14.8256 4.82551C14.8262 3.49391 14.2851 2.28543 13.4128 1.41395C12.5405 0.540508 11.3317 0 10.0004 0C8.66904 0 7.46025 0.540508 6.58853 1.41398C5.71623 2.28543 5.17518 3.49391 5.17518 4.82555C5.17518 6.15719 5.71623 7.36566 6.58853 8.23738C6.64775 8.2966 6.70869 8.35523 6.77143 8.41062C6.62666 8.67383 6.47834 8.95348 6.34291 9.22781C5.20389 8.8825 3.82154 8.61402 2.27037 8.61402H1.90396V11.9256C0.797793 11.9462 0.374512 12.8583 0.374512 13.9815C0.374512 15.1047 0.797793 16.0169 1.90396 16.0374V18.6734L2.25689 18.6857H2.26686C2.37764 18.6895 3.38537 18.7329 4.75068 18.9158C6.11545 19.0981 7.83834 19.422 9.36959 19.978L9.42994 20H10.5713L10.6317 19.978C12.2116 19.4041 13.9972 19.0779 15.3813 18.8988C16.0742 18.8094 16.6663 18.7557 17.0849 18.7247C17.2942 18.7091 17.46 18.6995 17.5732 18.693C17.6295 18.6904 17.6722 18.688 17.7015 18.6871C17.7156 18.6862 17.7268 18.6857 17.7332 18.6857H17.7438L18.0972 18.6734V16.0374C19.2035 16.016 19.6255 15.1047 19.6255 13.9815C19.6256 12.8583 19.2036 11.9467 18.0974 11.9256ZM1.9433 15.3055C1.931 15.3055 1.91807 15.3055 1.904 15.3049C1.65252 15.3023 1.10732 15.2363 1.10732 13.9815C1.10732 12.7264 1.65252 12.6605 1.904 12.6581C1.91807 12.6572 1.931 12.6572 1.9433 12.6572C2.19713 12.6572 2.43455 12.7299 2.63623 12.8542C3.0149 13.087 3.26697 13.5055 3.26697 13.9815C3.26697 14.4575 3.0149 14.8758 2.63623 15.1086C2.43455 15.2331 2.19713 15.3055 1.9433 15.3055ZM9.00908 11.182V19.0829C7.52123 18.6092 5.95951 18.3348 4.71322 18.1721C3.79518 18.0532 3.0501 17.9971 2.63623 17.972V15.9184C3.43174 15.6335 3.99975 14.8743 3.99975 13.9815C3.99975 13.0887 3.4317 12.3292 2.63623 12.0446V9.35238C4.54494 9.40688 6.17115 9.88113 7.33893 10.3575C7.95975 10.6095 8.451 10.8619 8.78338 11.0501C8.869 11.0987 8.94459 11.1427 9.00908 11.1817V11.182ZM10.5034 19.2464C10.484 19.2529 10.4641 19.2602 10.4447 19.2675H9.55662C9.53728 19.2602 9.51795 19.2529 9.4974 19.2464V11.4217H10.5034V19.2464ZM10.0004 8.93289C8.8842 8.93289 7.87529 8.48941 7.13549 7.76836C7.1226 7.75547 7.10971 7.74312 7.09619 7.73027C6.69463 7.32809 6.37689 6.84477 6.16877 6.30605C6.88982 6.17004 7.55228 5.89805 8.14318 5.5627C9.1392 4.99816 9.93705 4.2557 10.4904 3.65453C10.7296 3.3948 10.9225 3.16121 11.0656 2.97891C11.296 3.27586 11.6436 3.71141 12.0399 4.16309C12.3957 4.56848 12.7903 4.98676 13.1819 5.3341C13.3771 5.50824 13.5723 5.66473 13.7657 5.79398C13.8314 5.83707 13.8965 5.87633 13.9615 5.91355C13.771 6.61027 13.4023 7.23285 12.9052 7.73027C12.8917 7.74316 12.8788 7.75637 12.8653 7.76926C12.1243 8.49031 11.1154 8.93289 10.0004 8.93289ZM17.3651 17.972C16.9513 17.9971 16.2062 18.0532 15.287 18.1721C14.0419 18.3339 12.4801 18.6092 10.9923 19.0829C10.9923 19.0829 10.9923 19.0829 10.9917 19.0829V11.1811C10.9923 11.1811 10.9923 11.1811 10.9923 11.1811C11.3112 10.9897 11.8969 10.6667 12.6912 10.3452C13.8566 9.87383 15.4717 9.40602 17.3652 9.35238V12.0446C16.5697 12.3292 16.001 13.0887 16.001 13.9815C16.001 14.8743 16.5697 15.6335 17.3652 15.9184L17.3651 17.972ZM18.0974 15.3049C18.0827 15.3055 18.0698 15.3055 18.0575 15.3055C17.8037 15.3055 17.5668 15.234 17.3652 15.1094C16.9865 14.8758 16.7332 14.4575 16.7332 13.9815C16.7332 13.5055 16.9865 13.087 17.3652 12.8533C17.5668 12.7291 17.8037 12.6572 18.0575 12.6572C18.0698 12.6572 18.0828 12.6572 18.0974 12.6581C18.3494 12.6613 18.8935 12.7282 18.8935 13.9815C18.8934 15.2348 18.3494 15.3017 18.0974 15.3049Z" fill="white"/>
<path d="M8.41341 6.77884C8.68312 6.77884 8.90177 6.5602 8.90177 6.29048C8.90177 6.02077 8.68312 5.80212 8.41341 5.80212C8.14369 5.80212 7.92505 6.02077 7.92505 6.29048C7.92505 6.5602 8.14369 6.77884 8.41341 6.77884Z" fill="white"/>
<path d="M11.5872 6.77884C11.8569 6.77884 12.0756 6.5602 12.0756 6.29048C12.0756 6.02077 11.8569 5.80212 11.5872 5.80212C11.3175 5.80212 11.0989 6.02077 11.0989 6.29048C11.0989 6.5602 11.3175 6.77884 11.5872 6.77884Z" fill="white"/>
</g>
<defs>
<clipPath id="clip0_183_2336">
<rect width="20" height="20" fill="white"/>
</clipPath>
</defs>
</svg>
