<svg width="20" height="20" viewBox="0 0 20 20" fill="none" xmlns="http://www.w3.org/2000/svg">
<path fill-rule="evenodd" clip-rule="evenodd" d="M12.8825 2.77194H7.64498V1.56024C7.64498 1.23757 7.383 0.975586 7.06033 0.975586C6.73763 0.975586 6.47567 1.23757 6.47567 1.56024V2.77199C5.50104 2.77742 4.56751 3.16692 3.87797 3.85648C3.24987 4.48459 2.87071 5.3151 2.80403 6.19463H1.58173C1.25905 6.19463 0.99707 6.45662 0.99707 6.77929C0.99707 7.10197 1.25905 7.36395 1.58173 7.36395H2.79342V12.6015H1.58173C1.25905 12.6015 0.99707 12.8635 0.99707 13.1862C0.99707 13.5089 1.25905 13.7708 1.58173 13.7708H2.80403C2.87071 14.6504 3.24987 15.4809 3.87797 16.109C4.56751 16.7985 5.50104 17.188 6.47567 17.1935V18.4052C6.47567 18.7279 6.73763 18.9899 7.06033 18.9899C7.383 18.9899 7.64498 18.7279 7.64498 18.4052V17.1935H12.8825V18.4052C12.8825 18.7279 13.1445 18.9899 13.4672 18.9899C13.7899 18.9899 14.0519 18.7279 14.0519 18.4052V17.154C14.8342 17.0388 15.5645 16.6749 16.1305 16.109C16.7586 15.4809 17.1377 14.6504 17.2044 13.7708H18.4267C18.7494 13.7708 19.0113 13.5089 19.0113 13.1862C19.0113 12.8635 18.7494 12.6015 18.4267 12.6015H17.215V7.36395H18.4267C18.7494 7.36395 19.0113 7.10197 19.0113 6.77929C19.0113 6.45662 18.7494 6.19463 18.4267 6.19463H17.2044C17.1377 5.3151 16.7586 4.48459 16.1305 3.85648C15.5645 3.29053 14.8342 2.9267 14.0519 2.81147V1.56024C14.0519 1.23757 13.7899 0.975586 13.4672 0.975586C13.1445 0.975586 12.8825 1.23757 12.8825 1.56024V2.77194ZM13.5122 16.0242H6.49627C5.82433 16.0242 5.17991 15.7573 4.7048 15.2822C4.22966 14.807 3.96274 14.1626 3.96274 13.4907C3.96274 11.3754 3.96274 8.59003 3.96274 6.47478C3.96274 5.80285 4.22966 5.15843 4.7048 4.68331C5.17991 4.20818 5.82433 3.94125 6.49627 3.94125H13.5121C14.1841 3.94125 14.8285 4.20818 15.3036 4.68331C15.7788 5.15843 16.0457 5.80285 16.0457 6.47478V13.4907C16.0457 14.1626 15.7788 14.807 15.3036 15.2822C14.8285 15.7573 14.1841 16.0242 13.5122 16.0242ZM6.69114 9.98273C6.69114 9.98273 6.69114 10.5407 6.69114 11.1521C6.69116 12.336 7.65093 13.2958 8.8349 13.2958C9.56813 13.2958 10.4403 13.2958 11.1735 13.2958C12.3575 13.2958 13.3173 12.336 13.3173 11.1521C13.3173 10.4188 13.3173 9.54664 13.3173 8.81342C13.3173 7.62945 12.3575 6.66967 11.1735 6.66967C10.5622 6.66967 10.0042 6.66967 10.0042 6.66967C9.68152 6.66967 9.41956 6.93164 9.41956 7.25433C9.41956 7.57701 9.68152 7.83899 10.0042 7.83899H11.1735C11.7117 7.83899 12.1479 8.27525 12.148 8.81338C12.148 8.81343 12.148 11.1521 12.148 11.1521C12.1479 11.6902 11.7117 12.1265 11.1736 12.1265C11.1735 12.1265 8.8349 12.1265 8.8349 12.1265C8.29673 12.1265 7.86048 11.6902 7.86046 11.1521C7.86046 11.152 7.86046 9.98273 7.86046 9.98273C7.86046 9.66004 7.59849 9.39808 7.2758 9.39808C6.95312 9.39808 6.69114 9.66004 6.69114 9.98273ZM13.9019 5.46623C14.2435 5.46623 14.5207 5.7435 14.5207 6.08502C14.5207 6.42651 14.2435 6.70378 13.9019 6.70378C13.5604 6.70378 13.2832 6.42651 13.2832 6.08502C13.2832 5.7435 13.5604 5.46623 13.9019 5.46623Z" fill="white"/>
<path fill-rule="evenodd" clip-rule="evenodd" d="M17.215 6.47482C17.215 5.49276 16.8249 4.55093 16.1305 3.85652C15.4361 3.16209 14.4942 2.77197 13.5122 2.77197C11.397 2.77197 8.61155 2.77197 6.4963 2.77197C5.51424 2.77197 4.57241 3.16209 3.878 3.85652C3.18358 4.55093 2.79346 5.49276 2.79346 6.47482C2.79346 8.59006 2.79346 11.3755 2.79346 13.4907C2.79346 14.4728 3.18358 15.4146 3.878 16.109C4.57241 16.8034 5.51424 17.1936 6.4963 17.1936C7.80696 17.1936 9.2592 17.1936 10.2717 17.1936C11.2538 17.1936 12.1956 16.8034 12.8901 16.109C13.8074 15.1916 15.2131 13.7859 16.1305 12.8686C16.8249 12.1741 17.215 11.2323 17.215 10.2503V6.47482ZM16.0457 6.47482V10.2503C16.0457 10.9222 15.7788 11.5666 15.3037 12.0417C14.3863 12.9591 12.9806 14.3648 12.0632 15.2822C11.5881 15.7573 10.9437 16.0242 10.2717 16.0242C9.2592 16.0242 7.80696 16.0242 6.4963 16.0242C5.82436 16.0242 5.17995 15.7573 4.70483 15.2822C4.2297 14.8071 3.96277 14.1626 3.96277 13.4907C3.96277 11.3755 3.96277 8.59006 3.96277 6.47482C3.96277 5.80288 4.2297 5.15846 4.70483 4.68335C5.17995 4.20821 5.82436 3.94129 6.4963 3.94129H13.5122C14.1841 3.94129 14.8285 4.20821 15.3037 4.68335C15.7788 5.15846 16.0457 5.80288 16.0457 6.47482ZM6.69117 11.1521C6.69119 12.3361 7.65097 13.2958 8.83494 13.2958C9.56816 13.2958 10.4403 13.2958 11.1736 13.2958C12.3575 13.2958 13.3173 12.3361 13.3173 11.1521C13.3173 10.4189 13.3173 9.54668 13.3173 8.81345C13.3173 7.62948 12.3575 6.66971 11.1736 6.66971H8.83494C7.65097 6.66971 6.69119 7.62948 6.69117 8.81345V11.1521ZM7.86049 11.1521V8.81345C7.86051 8.27528 8.29677 7.83903 8.8349 7.83903C8.83495 7.83903 11.1736 7.83903 11.1736 7.83903C11.7117 7.83903 12.148 8.27528 12.148 8.81341C12.148 8.81347 12.148 11.1521 12.148 11.1521C12.148 11.6903 11.7117 12.1265 11.1736 12.1265C11.1735 12.1265 8.83494 12.1265 8.83494 12.1265C8.29677 12.1265 7.86051 11.6903 7.86049 11.1521Z" fill="white" fill-opacity="0.5"/>
</svg>
