<svg width="20" height="20" viewBox="0 0 20 20" fill="none" xmlns="http://www.w3.org/2000/svg">
<path d="M0 6.18696V17.091C0 17.8436 0.610313 18.4545 1.36469 18.4545H3.06891V4.82349H1.36469C0.610313 4.82349 0 5.43321 0 6.18696Z" fill="white"/>
<path d="M18.6366 4.82349H16.9324V18.4545H18.6366C19.3897 18.4545 20.0001 17.8436 20.0001 17.091V6.18696C20.0001 5.43321 19.3897 4.82349 18.6366 4.82349Z" fill="white"/>
<path d="M7.00938 7.45644C6.87578 7.59003 6.87578 7.80667 7.00938 7.93999C7.14301 8.07362 7.35934 8.07362 7.49293 7.93999C7.62656 7.80667 7.62656 7.59007 7.49293 7.45644C7.35934 7.32312 7.14297 7.32312 7.00938 7.45644Z" fill="white"/>
<path d="M13.8464 2.65861C13.8464 2.04443 13.3459 1.54541 12.7332 1.54541H7.26796C6.65405 1.54541 6.15472 2.04443 6.15472 2.65861V4.82346H4.43237V18.4545H15.5688V4.8235H13.8464V2.65861ZM11.1531 9.91232L9.46495 11.6004C9.28671 11.7784 8.99808 11.7784 8.8198 11.6004L6.20386 8.98447C6.11843 8.89877 6.07022 8.78268 6.07022 8.66189V6.97342C6.07022 6.7217 6.27468 6.51752 6.52644 6.51752H8.21456C8.33569 6.51752 8.45171 6.56545 8.53745 6.65115L11.1532 9.26713C11.331 9.4451 11.331 9.73404 11.1531 9.91232ZM12.4826 4.8235H7.51851V2.90947H12.4826V4.8235Z" fill="white"/>
</svg>
