<svg width="20" height="20" viewBox="0 0 20 20" fill="none" xmlns="http://www.w3.org/2000/svg">
<g clip-path="url(#clip0_183_2338)">
<path d="M18.717 9.69194C18.4211 9.38561 18.0165 9.20802 17.5907 9.19754C17.1649 9.18707 16.7521 9.34454 16.4414 9.63594L13.362 12.3719C13.5177 12.6722 13.5986 13.0057 13.5979 13.3439C13.5963 13.7801 13.4624 14.2056 13.2139 14.5641C12.9654 14.9226 12.614 15.1973 12.2062 15.3519L9.61859 16.3239C9.51935 16.3594 9.41017 16.3545 9.31447 16.3104C9.21877 16.2663 9.14418 16.1864 9.10668 16.0879C9.08772 16.0391 9.07869 15.9871 9.08012 15.9347C9.08155 15.8824 9.09341 15.8309 9.11502 15.7832C9.13662 15.7355 9.16753 15.6926 9.20592 15.657C9.24432 15.6214 9.28944 15.5939 9.33863 15.5759L11.9262 14.6039C12.1819 14.5068 12.4022 14.3343 12.5578 14.1094C12.7135 13.8844 12.7973 13.6175 12.798 13.3439C12.7882 12.9906 12.6435 12.6545 12.3936 12.4046C12.1437 12.1546 11.8076 12.0098 11.4543 11.9999H3.99951C3.99952 11.8949 3.97884 11.7909 3.93865 11.6938C3.89846 11.5968 3.83954 11.5086 3.76527 11.4343C3.69099 11.36 3.60281 11.3011 3.50577 11.2609C3.40872 11.2206 3.3047 11.1999 3.19965 11.1999H1.59991C1.49486 11.1999 1.39085 11.2206 1.2938 11.2609C1.19675 11.3011 1.10857 11.36 1.03429 11.4343C0.96002 11.5086 0.901105 11.5968 0.860913 11.6938C0.820721 11.7909 0.800039 11.8949 0.800049 11.9999V18.3999C0.800034 18.6121 0.884296 18.8156 1.0343 18.9656C1.1843 19.1156 1.38776 19.1999 1.59991 19.1999H3.19965C3.4118 19.1999 3.61526 19.1156 3.76527 18.9656C3.91527 18.8156 3.99953 18.6121 3.99952 18.3999H5.61925L6.11916 18.6039C7.67057 19.2458 9.38698 19.3731 11.0161 18.967C12.6452 18.5609 14.101 17.6429 15.1696 16.3479L18.813 11.9439C19.0789 11.6234 19.2162 11.2155 19.1985 10.7995C19.1808 10.3834 19.0092 9.98872 18.717 9.69194ZM5.19931 17.5999H3.99951V12.7999H5.19931V17.5999ZM12.1673 0.799939C11.3782 0.797818 10.6124 1.06734 9.99851 1.56322C9.38466 1.06734 8.61885 0.797818 7.82973 0.799939C6.90945 0.802239 6.02765 1.16947 5.37777 1.82107C4.72789 2.47267 4.36299 3.35543 4.36312 4.27572C4.36312 7.93275 9.57512 11.016 9.79698 11.1456C9.85819 11.1812 9.92772 11.1999 9.99851 11.1999C10.0693 11.1999 10.1388 11.1812 10.2 11.1456C10.4219 11.0159 15.6339 7.93274 15.6339 4.27572C15.634 3.35543 15.2691 2.47267 14.6192 1.82107C13.9694 1.16947 13.0876 0.802238 12.1673 0.799939ZM11.4585 8.26278C11.3853 8.32282 11.293 8.35448 11.1984 8.35194C11.1178 8.3513 11.0392 8.32621 10.9732 8.27998C10.9071 8.23374 10.8567 8.16855 10.8285 8.09302C10.8003 8.01748 10.7957 7.93517 10.8153 7.85696C10.8349 7.77875 10.8777 7.70833 10.9382 7.65502C12.4188 6.38666 13.2343 5.18627 13.2343 4.27572C13.2351 3.99166 13.1233 3.71887 12.9232 3.5172C12.7232 3.31552 12.4513 3.20142 12.1673 3.19994C12.0612 3.19994 11.9595 3.1578 11.8844 3.08278C11.8094 3.00777 11.7673 2.90603 11.7673 2.79994C11.7673 2.69385 11.8094 2.59211 11.8844 2.5171C11.9595 2.44208 12.0612 2.39994 12.1673 2.39994C12.6634 2.40165 13.1386 2.60011 13.4886 2.95177C13.8386 3.30344 14.0348 3.77957 14.0342 4.27572C14.0342 5.74718 12.6337 7.25575 11.4585 8.26278Z" fill="white"/>
</g>
<defs>
<clipPath id="clip0_183_2338">
<rect width="20" height="20" fill="white"/>
</clipPath>
</defs>
</svg>
