<svg width="20" height="20" viewBox="0 0 20 20" fill="none" xmlns="http://www.w3.org/2000/svg">
<g clip-path="url(#clip0_183_2340)">
<path d="M16.0851 7.51836C15.9224 7.57586 15.8371 7.75441 15.8946 7.91711C16.1304 8.58449 16.25 9.28527 16.25 10C16.25 13.4463 13.4462 16.25 10 16.25C6.55375 16.25 3.75 13.4463 3.75 10C3.75 6.55371 6.55375 3.75 10 3.75C11.4825 3.75 12.9199 4.2782 14.0473 5.23734C14.1788 5.3491 14.376 5.33324 14.4879 5.2018C14.5997 5.07035 14.5838 4.87312 14.4523 4.76129C13.212 3.70609 11.6307 3.125 10 3.125C6.2091 3.125 3.125 6.2091 3.125 10C3.125 13.7909 6.2091 16.875 10 16.875C13.7909 16.875 16.875 13.7909 16.875 10C16.875 9.21414 16.7434 8.44328 16.4839 7.70891C16.4264 7.54617 16.2479 7.46082 16.0851 7.51836Z" fill="white"/>
<path d="M15.3246 6.72524C15.3836 6.82106 15.486 6.87383 15.5909 6.87383C15.6468 6.87383 15.7034 6.85879 15.7546 6.82735C15.9015 6.7368 15.9472 6.54426 15.8566 6.39735C15.7179 6.17235 15.5645 5.95293 15.4006 5.7452C15.2937 5.60965 15.0972 5.58649 14.9617 5.69344C14.8262 5.80032 14.8031 5.99684 14.9099 6.13231C15.059 6.32118 15.1985 6.52071 15.3246 6.72524Z" fill="white"/>
<path d="M18.75 8.125H18.2268C18.0159 7.19344 17.6524 6.31539 17.1435 5.50816L17.513 5.13863C18.0004 4.65125 18.0004 3.85828 17.513 3.37086L16.6291 2.48695C16.1418 1.99969 15.3487 1.99965 14.8614 2.48695L14.4918 2.85652C13.6846 2.34758 12.8066 1.98406 11.875 1.77316V1.25C11.875 0.560742 11.3143 0 10.625 0H9.375C8.68574 0 8.125 0.560742 8.125 1.25V1.77316C7.1934 1.9841 6.31535 2.34758 5.50816 2.85652L5.13863 2.48695C4.65129 1.99969 3.85824 1.99965 3.37086 2.48695L2.48699 3.3709C1.99961 3.85828 1.99961 4.65125 2.48699 5.13867L2.85652 5.50816C2.34758 6.31543 1.98406 7.19348 1.77316 8.125H1.25C0.560742 8.125 0 8.68574 0 9.375V10.625C0 11.3143 0.560742 11.875 1.25 11.875H1.77316C1.98406 12.8066 2.34758 13.6846 2.85652 14.4918L2.48699 14.8614C1.99961 15.3487 1.99961 16.1417 2.48699 16.6291L3.37086 17.513C3.8582 18.0004 4.65121 18.0005 5.13863 17.513L5.50816 17.1434C6.31539 17.6524 7.1934 18.0159 8.12496 18.2268V18.75C8.12496 19.4393 8.6857 20 9.37496 20H10.625C11.3142 20 11.875 19.4393 11.875 18.75V18.2268C12.8065 18.0159 13.6845 17.6524 14.4918 17.1435L14.8613 17.513C15.3486 18.0004 16.1417 18.0004 16.6291 17.513L17.5129 16.6291C18.0003 16.1417 18.0003 15.3488 17.5129 14.8613L17.1434 14.4918C17.6523 13.6846 18.0159 12.8066 18.2268 11.875H18.75C19.4393 11.875 20 11.3143 20 10.625V9.375C20 8.68574 19.4393 8.125 18.75 8.125ZM19.375 10.625C19.375 10.9696 19.0946 11.25 18.75 11.25H17.9733C17.8238 11.25 17.6952 11.3559 17.6666 11.5027C17.4663 12.5306 17.0684 13.4915 16.4841 14.359C16.4005 14.483 16.4166 14.6488 16.5223 14.7546L17.0711 15.3033C17.3147 15.547 17.3147 15.9435 17.0711 16.1872L16.1872 17.0711C15.9435 17.3148 15.547 17.3148 15.3033 17.0711L14.7545 16.5223C14.6488 16.4166 14.4829 16.4006 14.359 16.4841C13.4914 17.0685 12.5305 17.4663 11.5027 17.6666C11.3559 17.6952 11.25 17.8237 11.25 17.9733V18.75C11.25 19.0946 10.9696 19.375 10.625 19.375H9.375C9.03039 19.375 8.75 19.0946 8.75 18.75V17.9733C8.75 17.8237 8.64406 17.6952 8.49727 17.6665C7.46949 17.4663 6.50852 17.0684 5.64105 16.4841C5.58789 16.4482 5.52707 16.4307 5.46656 16.4307C5.38594 16.4307 5.3059 16.4619 5.24547 16.5223L4.69672 17.0711C4.45301 17.3148 4.05652 17.3148 3.81281 17.0711L2.92895 16.1872C2.68527 15.9435 2.68527 15.547 2.92895 15.3033L3.47773 14.7545C3.58348 14.6488 3.59949 14.483 3.51594 14.3589C2.9316 13.4915 2.53371 12.5305 2.33344 11.5027C2.30484 11.3559 2.17625 11.25 2.02672 11.25H1.25C0.905391 11.25 0.625 10.9696 0.625 10.625V9.375C0.625 9.03039 0.905391 8.75 1.25 8.75H2.02668C2.17621 8.75 2.3048 8.64406 2.3334 8.49727C2.53367 7.46949 2.93152 6.50855 3.5159 5.64102C3.59945 5.51699 3.5834 5.35117 3.47766 5.24543L2.92891 4.69668C2.68523 4.45301 2.68523 4.05648 2.92891 3.81281L3.81281 2.92891C4.05652 2.68527 4.45301 2.6852 4.69672 2.92891L5.24547 3.4777C5.35121 3.5834 5.51703 3.59945 5.64102 3.5159C6.5084 2.93156 7.46938 2.53371 8.49727 2.33344C8.64402 2.30484 8.75 2.17625 8.75 2.02668V1.25C8.75 0.905391 9.03039 0.625 9.375 0.625H10.625C10.9696 0.625 11.25 0.905391 11.25 1.25V2.02668C11.25 2.17621 11.3559 2.3048 11.5027 2.33344C12.5306 2.53375 13.4916 2.9316 14.359 3.5159C14.483 3.59945 14.6488 3.58344 14.7545 3.4777L15.3033 2.92891C15.547 2.68527 15.9435 2.6852 16.1872 2.92891L17.0711 3.81281C17.3147 4.05648 17.3147 4.45301 17.0711 4.69668L16.5223 5.24543C16.4166 5.35117 16.4005 5.51699 16.4841 5.64102C17.0685 6.50848 17.4663 7.46949 17.6666 8.49727C17.6952 8.64406 17.8237 8.75 17.9733 8.75H18.75C19.0946 8.75 19.375 9.03039 19.375 9.375V10.625Z" fill="white"/>
<path d="M8.23664 11.5188L7.07223 11.8212C7.07031 11.8217 7.06836 11.8222 7.06645 11.8228C6.32527 12.0304 5.9375 12.757 5.9375 13.3675V13.705C5.9375 14.0744 6.26082 14.375 6.65828 14.375L9.99492 14.3746C9.99734 14.3746 9.99965 14.375 10.0021 14.375C10.0045 14.375 10.0068 14.3746 10.0093 14.3746L13.3459 14.3743C13.7434 14.3743 14.0667 14.0737 14.0667 13.7043V13.3668C14.0667 12.7563 13.6789 12.0297 12.9377 11.8221C12.9358 11.8215 12.9339 11.821 12.932 11.8205L11.7676 11.5181C11.6689 11.4891 11.5909 11.4379 11.5741 11.4112L11.5733 10.7779C11.5743 10.7767 11.5753 10.7757 11.5762 10.7745C11.9755 10.2973 12.1954 9.67902 12.1954 9.03351V8.56179C12.5937 7.26421 12.313 6.13913 12.1689 5.81171C12.1685 5.81062 12.1679 5.80964 12.1673 5.80855C12.1646 5.80241 12.1615 5.79648 12.1584 5.79062C12.1566 5.78722 12.1548 5.78378 12.1529 5.78046C12.1499 5.77527 12.1466 5.77031 12.1433 5.76531C12.1408 5.76148 12.1383 5.75761 12.1357 5.75394C12.1328 5.74999 12.1297 5.74628 12.1267 5.74249C12.1232 5.73816 12.1198 5.73378 12.1162 5.72968C12.1136 5.72675 12.1108 5.72406 12.1081 5.72128C12.1037 5.71671 12.0994 5.71218 12.0948 5.70792C12.0922 5.70558 12.0895 5.70343 12.0869 5.7012C12.082 5.69691 12.077 5.69261 12.0718 5.68866C12.0687 5.68636 12.0656 5.68433 12.0625 5.68218C12.0575 5.67866 12.0525 5.67511 12.0473 5.67191C12.0433 5.66941 12.0391 5.66722 12.035 5.66491C12.0305 5.66245 12.0261 5.65984 12.0216 5.65757C12.0164 5.65503 12.0111 5.6528 12.0058 5.65054C12.002 5.6489 11.9982 5.64714 11.9944 5.64566C11.9886 5.64343 11.9826 5.64159 11.9767 5.63972C11.9731 5.63859 11.9695 5.6373 11.9659 5.63628C11.9601 5.63468 11.9543 5.63351 11.9484 5.63222C11.9443 5.63136 11.9402 5.63034 11.9361 5.62964C11.9309 5.62878 11.9257 5.6282 11.9205 5.62757C11.9154 5.62695 11.9103 5.62624 11.9052 5.62589C11.9009 5.62558 11.8966 5.62558 11.8923 5.62546C11.8861 5.62527 11.8798 5.62511 11.8735 5.62531C11.87 5.62538 11.8665 5.62573 11.863 5.62597C11.856 5.6264 11.8489 5.62698 11.8419 5.62792C11.8408 5.62804 11.8398 5.62804 11.8387 5.6282C11.5376 5.67128 11.1702 5.58327 10.7813 5.49019C10.0934 5.32542 9.31746 5.14011 8.63773 5.63019C7.98047 5.68667 7.51445 6.23902 7.51445 6.98558C7.51445 7.52847 7.76637 8.49812 7.8241 8.71327V8.97425C7.8241 9.64804 8.05727 10.2709 8.43105 10.7355L8.4302 11.412C8.41336 11.4386 8.33535 11.4898 8.23664 11.5188ZM8.44906 8.86741C8.44906 8.55679 8.58051 8.10257 8.67875 7.81523C10.0946 7.84773 11.163 8.18777 11.5704 8.33851V8.51195C11.5704 8.51288 11.5704 8.51386 11.5704 8.5148V9.03339C11.5704 9.58429 11.3632 10.089 11.0401 10.4382C11.0392 10.4391 11.0384 10.44 11.0376 10.4409C10.7598 10.7399 10.3968 10.9244 10.0056 10.9244C9.17641 10.9244 8.4491 10.013 8.4491 8.97409L8.44906 8.86741ZM9.05531 11.2823C9.34437 11.4526 9.66738 11.5494 10.0055 11.5494C10.3375 11.5494 10.6579 11.4635 10.9489 11.3009L10.9491 11.4154C10.9491 11.5703 11.0049 11.7003 11.0916 11.8065L10.0034 12.4488L8.91973 11.7985C9.00234 11.694 9.05516 11.567 9.05516 11.4165L9.05531 11.2823ZM6.65824 13.75C6.59441 13.75 6.5625 13.7135 6.5625 13.705V13.3675C6.5625 12.9933 6.79262 12.55 7.2325 12.4253L8.29121 12.1504L9.68961 12.9894V13.7496L6.65824 13.75ZM13.4417 13.3667V13.7043C13.4417 13.7128 13.4098 13.7492 13.3459 13.7492L10.3146 13.7495V12.9909L11.7317 12.1544L12.7718 12.4246C13.2116 12.5494 13.4417 12.9926 13.4417 13.3667ZM8.74969 6.24995C8.75066 6.24995 8.7516 6.24984 8.75258 6.2498C8.76191 6.24972 8.77121 6.24929 8.78051 6.24839C8.78355 6.24812 8.78648 6.24753 8.78949 6.24714C8.79664 6.24624 8.80375 6.24531 8.81086 6.2439C8.81469 6.24316 8.8184 6.2421 8.82219 6.24116C8.82832 6.23972 8.83441 6.23831 8.84051 6.23648C8.84465 6.23523 8.84863 6.23366 8.85273 6.23222C8.85828 6.23031 8.86379 6.22843 8.86926 6.22616C8.87359 6.22437 8.87773 6.22226 8.88195 6.2203C8.88695 6.21796 8.89195 6.21573 8.89684 6.21312C8.9016 6.21058 8.90613 6.20769 8.9107 6.20491C8.9148 6.20245 8.91902 6.20011 8.92305 6.19741C8.92887 6.19351 8.93437 6.18925 8.93992 6.18499C8.94238 6.18308 8.945 6.18144 8.94742 6.17945C9.40723 5.8037 10.0039 5.94667 10.6357 6.09784C10.9758 6.17929 11.325 6.26269 11.6641 6.26394C11.7455 6.56499 11.8257 7.09847 11.7396 7.7339C11.231 7.54863 10.0375 7.18741 8.46125 7.18741C8.46059 7.18741 8.45992 7.18749 8.45926 7.18749C8.45156 7.18753 8.44391 7.18804 8.43625 7.18866C8.43336 7.1889 8.43039 7.18898 8.4275 7.18929C8.42102 7.18999 8.41461 7.19113 8.4082 7.19222C8.40422 7.19292 8.4002 7.19343 8.39629 7.19425C8.39156 7.19527 8.38695 7.19663 8.3823 7.19784C8.37695 7.19925 8.37156 7.2005 8.36629 7.20214C8.36324 7.20312 8.36027 7.20441 8.35727 7.20546C8.35074 7.20777 8.34418 7.21003 8.33785 7.21277C8.33547 7.21378 8.33316 7.21507 8.33082 7.21616C8.32414 7.21925 8.31746 7.22234 8.31105 7.22585C8.30738 7.22784 8.30391 7.23019 8.30035 7.23238C8.29547 7.2353 8.29051 7.23812 8.28582 7.24132C8.27988 7.24534 8.27422 7.2498 8.26855 7.25425C8.26645 7.25589 8.26422 7.25738 8.26219 7.25909C8.25559 7.26452 8.2493 7.27038 8.24316 7.2764C8.24219 7.27734 8.24109 7.27823 8.24012 7.27921C8.23457 7.28476 8.22937 7.2907 8.22422 7.29671C8.22277 7.29839 8.22117 7.29995 8.21977 7.30167C8.21578 7.30652 8.21215 7.31167 8.20844 7.31683C8.20605 7.32007 8.20355 7.32323 8.20133 7.32659C8.19875 7.3305 8.19644 7.3346 8.19402 7.33862C8.19102 7.34359 8.18793 7.34855 8.1852 7.35374C8.18355 7.35683 8.18215 7.36011 8.18062 7.36327C8.17859 7.36738 8.17648 7.37144 8.17465 7.3757C8.15305 7.22827 8.13945 7.09284 8.13945 6.98554C8.13941 6.6462 8.29922 6.24995 8.74969 6.24995Z" fill="white"/>
</g>
<defs>
<clipPath id="clip0_183_2340">
<rect width="20" height="20" fill="white"/>
</clipPath>
</defs>
</svg>
